<svg width="199" height="46" viewBox="0 0 199 46" fill="none" xmlns="http://www.w3.org/2000/svg">
<g clip-path="url(#clip0_4064_521)">
<path d="M19.5622 7.55561V0.000915527H28.6278L31.4785 23.5078L39.2044 0.000915527H48.7737L34.9704 35.2159L24.6457 35.2091C23.5041 30.1156 23.4336 24.8273 22.5304 19.6968C22.4498 19.2469 22.4296 17.5782 21.748 17.7931L14.0355 35.2797L4.48976 35.2192L0.0878906 0.000915527H10.4966L11.843 23.501C12.632 23.6756 12.3836 23.3936 12.5951 23.0679" fill="#6D6D6D"/>
<path d="M103.507 46.0016L109.695 4.0076C109.927 3.66512 110.35 3.7222 110.709 3.67855C111.656 3.56103 117.794 3.53753 118.402 3.73899C119.527 4.1184 118.801 6.55269 119.795 6.38481C120.433 6.27737 122.589 4.41052 124.063 3.93373C142.667 -2.08316 140.478 27.4104 129.469 34.1861C125.967 36.3417 121.682 36.7245 118.046 34.6461C117.243 34.1861 116.847 33.2929 115.931 33.2392C115.427 34.6394 114.608 45.9983 113.745 45.9983H103.504L103.507 46.0016ZM125.574 11.8511C123.569 10.1991 120.339 12.2808 119.328 14.3122C118.449 16.085 116.992 23.7572 117.022 25.7685C117.032 26.3695 117.841 27.0377 118.372 27.2761C126.222 30.8284 128.421 14.198 125.574 11.8511Z" fill="#6D6D6D"/>
<path d="M166.626 25.5232C166.005 27.6251 166.156 31.6811 165.401 33.5043C164.645 35.3275 155.022 36.4053 153.018 36.2777C136.129 35.2033 138.032 12.0557 149.868 5.23297C154.995 2.27825 164.86 1.45898 168.372 7.1569C172.979 14.6243 165.045 20.7621 158.302 22.0648C156.758 22.3637 153.639 22.2495 152.742 22.5483C152.104 22.7599 152.161 23.4381 152.161 24.0123C152.161 28.676 159.165 27.7862 162.191 26.9603C163.755 26.5338 165.051 25.5131 166.626 25.5266V25.5232ZM152.192 16.79C154.663 16.9914 159.958 16.0311 160.441 13.1201C161.056 9.41659 156.473 9.6147 154.461 11.4144C153.773 12.0288 151.631 16.2326 152.188 16.79H152.192Z" fill="#6D6D6D"/>
<path d="M72.613 25.5198C72.885 25.8187 71.6595 32.8596 71.3875 33.5009C70.716 35.0824 62.1103 36.3113 60.3577 36.2878C42.2969 36.0292 44.3182 10.1452 57.8495 4.54128C62.9833 2.4159 71.5352 1.96262 74.6411 7.54637C78.9153 15.2287 70.5649 20.8057 63.9537 22.0648C62.896 22.2663 58.5311 22.5181 58.3263 22.8136C57.6816 23.7336 58.6083 25.7851 59.3369 26.5439C62.1909 29.5121 69.3561 27.0878 72.613 25.5232V25.5198ZM58.5143 16.7866C60.9788 16.9142 65.9548 16.0882 66.5089 13.1771C66.8916 11.1693 65.5788 10.2862 63.7321 10.397C60.5323 10.585 58.8467 13.9628 58.5177 16.7866H58.5143Z" fill="#6D6D6D"/>
<path d="M90.6414 24.9518C89.4293 23.8673 85.5244 22.8063 83.7213 21.6278C77.1773 17.3501 78.4834 7.3242 85.4773 4.29897C89.0297 2.76117 95.0466 2.53621 98.7367 3.5905C99.9454 3.93634 104.428 5.98786 104.126 7.46858C103.954 8.30463 99.284 13.5123 98.6796 13.4049C97.4238 11.1553 89.6912 9.07689 89.7046 12.589C89.7113 14.7412 95.3891 16.0608 97.2257 17.189C102.108 20.1806 102.964 25.9994 100.274 30.8512C96.7725 37.1636 84.8696 37.5564 79.2187 34.1853C78.5203 33.769 75.9584 31.8048 75.9551 31.056C75.9551 30.7102 80.0044 26.1169 80.4812 25.8349C82.0828 24.8813 82.4018 26.4023 83.6071 27.1108C85.2121 28.0543 90.2855 29.3335 91.2491 27.1846C91.5883 26.4258 91.2189 25.4689 90.638 24.9485L90.6414 24.9518Z" fill="#6D6D6D"/>
<path d="M195.704 25.5232C195.083 27.6251 195.234 31.6811 194.479 33.5043C193.723 35.3275 184.1 36.4053 182.096 36.2777C165.207 35.2033 167.111 12.0557 178.946 5.23297C184.073 2.27825 193.938 1.45898 197.45 7.1569C202.057 14.6243 194.123 20.7621 187.381 22.0648C185.836 22.3637 182.717 22.2495 181.82 22.5483C181.182 22.7599 181.239 23.4381 181.239 24.0123C181.239 28.676 188.244 27.7862 191.269 26.9603C192.833 26.5338 194.129 25.5131 195.704 25.5266V25.5232ZM181.27 16.79C183.741 16.9914 189.036 16.0311 189.519 13.1201C190.134 9.41659 185.551 9.6147 183.539 11.4144C182.851 12.0288 180.709 16.2326 181.266 16.79H181.27Z" fill="#6D6D6D"/>
</g>
<defs>
<clipPath id="clip0_4064_521">
<rect width="198.729" height="45.9997" fill="white"/>
</clipPath>
</defs>
</svg>
